<!--?xml version="1.0" encoding="utf-8"?-->
<!-- Generator: Adobe Illustrator 22.1.0, SVG Export Plug-In . SVG Version: 6.00 Build 0)  -->
<svg version="1.1" id="_x35_" xmlns="http://www.w3.org/2000/svg" xmlns:xlink="http://www.w3.org/1999/xlink" x="0px" y="0px" viewBox="0 0 800 303" style="enable-background:new 0 0 800 303;" xml:space="preserve">
<style type="text/css">
	.st0{fill:#C9A063;}
</style>
<g>
	<path class="st0" d="M628.2,30.5h-88.1c-0.2-0.3-0.6-0.5-1-0.5c-3,0-7.9-0.7-13.9-1.9c-18-3.6-46-11.5-63.8-16.8
		c-8.1-2.4-16.1-4.8-23.5-6.7c-7.4-1.8-14.2-3-19.9-3c-4.2,0-7.9,0.6-10.9,2.2c-3,1.6-5.3,4.2-6.5,7.9c-0.2,0.7-0.4,1.4-0.6,2.2
		c-0.1-0.7-0.3-1.4-0.6-2.2c-1.2-3.6-3.5-6.3-6.5-7.9c-3-1.6-6.7-2.2-10.9-2.2c-5.8,0-12.6,1.2-19.9,3c-7.4,1.8-15.3,4.2-23.5,6.7
		c-11.9,3.5-28.2,8.2-43.2,12c-7.5,1.9-14.6,3.6-20.6,4.8c-6,1.2-10.9,1.9-13.9,1.9c-0.4,0-0.8,0.2-1,0.5H4V33h624.2H796v-2.5
		L628.2,30.5L628.2,30.5z M325.7,30.5c3.2-1.6,6.8-3.8,10.7-6.3c1.4,0.5,2.9,1,4.4,1.5c5.2,1.7,10.6,3.4,15.4,4.7
		c0.2,0.1,0.4,0.1,0.6,0.1L325.7,30.5L325.7,30.5z M443.5,30.5c6.2-1.6,13.4-4,19.8-6.1c0.2-0.1,0.4-0.1,0.6-0.2
		c2.4,1.5,4.7,3,6.8,4.2c1.4,0.8,2.6,1.5,3.9,2.1L443.5,30.5L443.5,30.5z M504.1,25.7c7.5,1.9,14.6,3.6,20.6,4.8h-43.6l0-0.3v0
		c-1.1-0.1-2.4-0.6-4-1.2c-2.9-1.2-6.3-3.3-10.2-5.8c6.3-2.2,11.1-4,11.8-4.3C487,21.2,495.7,23.6,504.1,25.7z M460.8,13.6
		c4.2,1.2,8.9,2.6,13.9,4.1c-2.5,0.9-6.2,2.2-10.4,3.7c-2.8-1.8-5.7-3.7-8.7-5.6c-4-2.6-8.3-5.1-12.6-7.3
		C448.7,10,454.7,11.8,460.8,13.6z M403.1,12.4c1-3.1,2.8-5.1,5.3-6.4c2.5-1.3,5.8-1.9,9.7-1.9c3,0,6.4,0.4,10,1l0,0.1
		c9.7,2.5,20.3,9,29.7,15.1c1.2,0.8,2.3,1.5,3.5,2.3c-2.1,0.7-4.2,1.4-6.4,2.1c-4.6,1.5-9.2,2.8-13.2,3.8c-4,1-7.4,1.6-9.4,1.6v0.5
		h-12.8c0.4-0.1,0.8-0.3,1.2-0.5c1.7-0.9,3.3-2.2,4.3-4c1-1.8,1.5-3.5,1.5-5.1c0-2.4-1.1-4.4-2.5-5.8c-1.5-1.4-3.4-2.1-5.2-2.1
		c-1.1,0-2.3,0.3-3.2,1c-1,0.7-1.7,1.8-2,3.2c-0.2,0.7,0.3,1.3,0.9,1.5c0.7,0.2,1.3-0.3,1.5-0.9c0.2-0.9,0.6-1.4,1-1.7
		c0.5-0.3,1-0.5,1.7-0.5c1.1,0,2.5,0.5,3.5,1.5c1,1,1.7,2.3,1.7,3.9c0,1.1-0.3,2.4-1.2,3.8c-0.8,1.4-1.9,2.3-3.3,3
		c-1.3,0.7-2.9,1-4.6,1c-3,0-6.3-1.1-8.7-3.1c-2.4-2-4.1-4.9-4.1-8.6C402.3,15.6,402.5,14.1,403.1,12.4z M400.1,20.2
		c0.7,3,2.4,5.5,4.6,7.3c1.6,1.3,3.5,2.3,5.5,3H390c2-0.6,3.9-1.6,5.5-3C397.7,25.7,399.4,23.2,400.1,20.2z M372.2,5
		c3.6-0.6,7-1,10-1c3.9,0,7.2,0.6,9.7,1.9c2.5,1.3,4.3,3.3,5.3,6.4c0.6,1.7,0.8,3.2,0.8,4.6c0,3.7-1.6,6.5-4.1,8.6
		c-2.4,2-5.7,3.1-8.7,3.1c-1.7,0-3.2-0.3-4.6-1c-1.4-0.7-2.5-1.6-3.3-3c-0.9-1.5-1.2-2.7-1.2-3.8c0-1.6,0.7-3,1.7-3.9
		c1-1,2.4-1.5,3.5-1.5c0.7,0,1.3,0.2,1.7,0.5c0.5,0.3,0.8,0.8,1,1.7c0.2,0.7,0.8,1.1,1.5,0.9c0.7-0.2,1.1-0.8,0.9-1.5
		c-0.3-1.4-1-2.4-2-3.2c-1-0.7-2.1-1-3.2-1c-1.9,0-3.8,0.8-5.2,2.1c-1.5,1.4-2.5,3.4-2.5,5.8c0,1.6,0.5,3.3,1.5,5.1
		c1,1.8,2.6,3.1,4.3,4c0.4,0.2,0.8,0.3,1.2,0.5h-12.8V30c-1.1,0-2.7-0.2-4.6-0.6c-6.3-1.2-16-4.2-24.3-7c2.3-1.5,4.6-3,7.1-4.5
		C354.5,12.5,363.7,7.3,372.2,5L372.2,5z M339.5,13.6c6.1-1.8,12.1-3.6,17.8-5.2c-5.6,2.9-11,6.3-16.1,9.6c-1.8,1.1-3.5,2.3-5.1,3.3
		c-3.6-1.2-6.8-2.4-9.2-3.3c-0.4-0.2-0.8-0.3-1.2-0.4C330.6,16.2,335.3,14.9,339.5,13.6z M321.5,18.8c0.8,0.3,5.6,2.1,11.8,4.3
		c-1.8,1.1-3.5,2.2-5,3.1c-1.9,1.1-3.6,2-5.2,2.7c-1.5,0.7-2.9,1.1-4,1.2l0,0.3h-43.6C288.4,27.9,306,23.2,321.5,18.8z" style="fill: rgb(75, 40, 31);"></path>
	<polygon class="st0" points="4,297.8 4,301.5 628.2,301.5 796,301.5 796,297.8 628.2,297.8 	" style="fill: rgb(75, 40, 31);"></polygon>
	<polygon class="st0" points="4,287.8 4,289.9 628.2,289.9 796,289.9 796,287.8 628.2,287.8 	" style="fill: rgb(75, 40, 31);"></polygon>
	<polygon class="st0" points="4,42.2 4,44.3 628.2,44.3 796,44.3 796,42.2 628.2,42.2 	" style="fill: rgb(75, 40, 31);"></polygon>
</g>
</svg>
