<!--?xml version="1.0" encoding="utf-8"?-->
<!-- Generator: Adobe Illustrator 22.1.0, SVG Export Plug-In . SVG Version: 6.00 Build 0)  -->
<svg version="1.1" id="_x33_" xmlns="http://www.w3.org/2000/svg" xmlns:xlink="http://www.w3.org/1999/xlink" x="0px" y="0px" viewBox="0 0 800 222.4" style="enable-background:new 0 0 800 222.4;" xml:space="preserve">
<style type="text/css">
	.st0{fill:#231815;}
</style>
<g>
	<g>
		<path class="st0" d="M763.7,110c1.5-1.5,28.8-68.2,5.8-108.8c4.6,1.4,12.2,14.2,16.9,28.5c2.4,7.2,4.5,20.9,0,28.5
			c-4.7,7.9-3,12.1-1.5,10.6c1.5-1.5,4.8-8.8,7.6-3C804.6,91.5,783.4,84.3,763.7,110z" style="fill: rgb(75, 40, 31);"></path>
		<path class="st0" d="M675,196.7c2.1-11,6.6-15.2,29.3-34.9c10.6-13.6,10.3-14.7,13.6-19.7c3-4.5,3-9.1,2.3-22.8
			c-0.7-12.9,0.5-24,7.6-13.6c9.9,14.6,1.4,10.6,10.1,15c3,1.5-2.7-13.9-9.1-22.7c-8.6-11.9-6.1-20.8-5.5-25.6
			c1.5-12.1,3-16.7,10.6-10.6c10.6,8.5,9.1,16.7,10.1,19.5c2.2,6.4,7.6,3,1.5-13.6c-6.1-16.7-6.1-33.3,5.1-44.5
			c6.1-6.1,12.3-28.3,16-20.3c15.6,38.6-1.4,79.9-2.9,89c-10.8,30.6-20.7,45.8-35.1,65.5c10.1-10.1,15.2-15.2,28.8-30.3
			c0-3,3.3-7.9,12.3-12.4c9.1-4.5,12.1-13.6,13.6-6.1c1.5,7.6-1.5,25.8-12.1,33.3c-10.6,7.6-21.2,7.6-22.7,12.1
			c-1.5,4.5,4.5,1.5,10.6-1.5c6.1-3,1.5,0,1.5,6.1c0,6.1-13.9,7.9-19.9,9.4c-11.8,2.9-35.4,7.6-46,16.7c-3.8,3.2-6.2,5.6-7.7,7.4
			c-6.4,11.6-3.9,24.3,7.7,19.7c11.1-4.4,4.4-13.3,0-4.4c-6.6-2.2-4.4-14.4,4.4-14.4c8.8,0,13.9,12.7,8.2,21.9
			C698.5,229.3,671,217.9,675,196.7z" style="fill: rgb(75, 40, 31);"></path>
	</g>
	<g>
		<path class="st0" d="M36.3,110c-1.5-1.5-28.8-68.2-5.8-108.8c-4.6,1.4-12.2,14.2-16.9,28.5c-2.4,7.2-4.5,20.9,0,28.5
			c4.7,7.9,3,12.1,1.5,10.6c-1.5-1.5-4.8-8.8-7.6-3C-4.6,91.5,16.6,84.3,36.3,110z" style="fill: rgb(75, 40, 31);"></path>
		<path class="st0" d="M125,196.7c-2.1-11-6.6-15.2-29.3-34.9c-10.6-13.6-10.3-14.7-13.6-19.7c-3-4.5-3-9.1-2.3-22.8
			c0.7-12.9-0.5-24-7.6-13.6c-9.9,14.6-1.4,10.6-10.1,15c-3,1.5,2.7-13.9,9.1-22.7c8.6-11.9,6.1-20.8,5.5-25.6
			c-1.5-12.1-3-16.7-10.6-10.6C55.5,70.2,57,78.4,56,81.2c-2.2,6.4-7.6,3-1.5-13.6c6.1-16.7,6.1-33.3-5.1-44.5
			c-6.1-6.1-12.3-28.3-16-20.3c-15.6,38.6,1.4,79.9,2.9,89c10.8,30.6,20.7,45.8,35.1,65.5c-10.1-10.1-15.2-15.2-28.8-30.3
			c0-3-3.2-7.9-12.3-12.4c-9.1-4.5-12.1-13.6-13.6-6.1c-1.5,7.6,1.5,25.8,12.1,33.3c10.6,7.6,21.2,7.6,22.7,12.1
			c1.5,4.5-4.5,1.5-10.6-1.5c-6.1-3-1.5,0-1.5,6.1c0,6.1,13.9,7.9,19.9,9.4c11.8,2.9,35.4,7.6,46,16.7c3.8,3.2,6.2,5.6,7.7,7.4
			c6.4,11.6,3.9,24.3-7.7,19.7c-11.1-4.4-4.4-13.3,0-4.4c6.6-2.2,4.4-14.4-4.4-14.4s-13.9,12.7-8.2,21.9
			C101.5,229.3,129,217.9,125,196.7z" style="fill: rgb(75, 40, 31);"></path>
	</g>
</g>
</svg>
