<!--?xml version="1.0" encoding="utf-8"?-->
<!-- Generator: Adobe Illustrator 22.1.0, SVG Export Plug-In . SVG Version: 6.00 Build 0)  -->
<svg version="1.1" id="_x38_" xmlns="http://www.w3.org/2000/svg" xmlns:xlink="http://www.w3.org/1999/xlink" x="0px" y="0px" viewBox="0 0 800 565.7" style="width: 601px;" xml:space="preserve">
<style type="text/css">
	.st0{fill:#FFAD9F;}
	.st1{fill:#FFFFFF;}
</style>
<g>
	<rect x="4" y="2.8" class="st0" width="792" height="560" style="opacity: 1; fill: rgb(117, 79, 68);"></rect>
	<g>
		<g>
			<g>
				<g>
					<g>
						<g>
							<path class="st1" d="M774.8,62c-0.3-4.2-2.3-11.7,2.4-13.4c-3.1,3.1-1.6,8.1-1.6,12.3c2.3-0.6,7.6-5.3,7.6-5.3
								s-0.3-2.4-4.2-3.3c1.8,0.1,4.4-3.1,5.7-2.7c0.2-3.7-6.8-7.1-12.1-2.1c-5.3,5,1.8,19.3-4.5,26.5c2.4-8.6-1.8-13.4-3.6-12
								c4.4,2.8,0.5,19.3-9.7,9.7c-9.7-9.1-7.7-18,4-29.8c1.9-1.9,3.9-1.5,5.3,0c1.5,1.5,3.7-1.5,3.1-2.1c-0.6-0.6-1.6-2.6,0-4.2
								c1.5-1.5,7.9,4.8,11.5,2.3c0.6-1.2-2.5-2.5-1.6-2.9c1.1-0.5,2.1,1.5,4.1,1.4c2-0.1,3.3-2,3.4-3.7c-1-0.4-1.9-1.5-3.2-1.5
								c-1.3,0.1-2.7,1.1-2.9,1.1c-0.5,0,1.9-1.5,1-2c-1.3-1.8-2.4-0.3-4-0.7c-2.1-0.5-2.6-1.9,0.2-1.5c1.9,0.3,5.2,1.2,6.5-0.2
								c0.4-0.4-0.8-1.2-0.6-1.3c0.2-0.1,0.5,0,1.6,0c1,0,2-1.5,1.8-2.2c-0.3-0.9-2.3-0.8-3.1-0.1c-1.4,1.2-0.6,0.1-0.7,0.2
								c-0.6,0.4,1.3-0.9,0.8-1.4c-0.5-0.5-3.1,0.7-2.8-0.2c0.3-1,0.9-0.7,2.8-1c0.8-0.1,2.3-1.6,2.1-2.4c-0.6-0.8-2.1-0.2-2.1-0.4
								c-0.1-0.4,1.1-0.8,1.8-1.2c0.7-0.4,1.3-1.8,0.9-3.3c-1.5-0.3-2.9,0.2-3.3,0.9c-0.4,0.7-0.8,1.9-1.2,1.8
								c-0.2,0,0.4-1.5-0.4-2.1c-0.7-0.2-2.2,1.3-2.4,2.1c-0.3,1.8-0.1,2.4-1,2.8c-0.9,0.3,0.3-2.3-0.2-2.8
								c-0.5-0.5-1.9,1.4-1.4,0.8c0.1-0.1-1.1,0.7,0.2-0.7c0.7-0.8,0.8-2.8-0.1-3.1c-0.7-0.3-2.3,0.8-2.2,1.8c0,1.1,0.1,1.4,0,1.6
								c0,0.1-0.8-1-1.3-0.6c-1.4,1.4-0.5,4.6-0.2,6.5c0.5,2.8-1,2.3-1.5,0.2c-0.4-1.6,1.1-2.7-0.7-4c-0.4-0.8-2,1.5-2,1
								c0-0.2,1.1-1.6,1.1-2.9c0.1-1.4-1.1-2.3-1.5-3.2c-1.7,0.1-3.6,1.4-3.7,3.4c-0.1,2,1.9,3.1,1.4,4.1c-0.4,0.9-1.7-2.2-2.9-1.6
								c-2.5,3.6,3.8,10,2.3,11.5c-1.6,1.6-3.6,0.6-4.2,0c-0.6-0.6-3.6,1.6-2.1,3.1c1.5,1.5,1.9,3.5,0,5.3
								c-11.7,11.7-20.7,13.7-29.8,4c-9.5-10.2,7-14.1,9.7-9.7c1.5-1.8-3.4-6-12-3.6c7.3-6.3,21.5,0.8,26.5-4.5
								c5-5.3,1.6-12.3-2.1-12.1c0.4,1.3-2.8,3.9-2.7,5.7c-0.9-3.9-3.3-4.2-3.3-4.2s-4.7,5.3-5.3,7.6c4.2,0,9.2,1.5,12.3-1.6
								c-1.8,4.7-9.2,2.8-13.4,2.4c-4.2-0.3-15.1-0.8-19.3,9.9c-4.2,10.7,11.6,25.8,29.4,17.8c-8,17.9,7.1,33.7,17.8,29.4
								C775.6,77.1,775.1,66.2,774.8,62z"></path>
						</g>
						<g>
							<path class="st1" d="M750.1,45.2c-5.2,3-11.4,5.6-16,2.2c-5.5-4.2-1.8-13,5.6-11c4,1.1,4.2,7.5,1.6,6.6
								c-1.9-0.4,0.3-3.2-1.9-4.2c-2.3-1-3.8,0.7-4.1,1.9c4.1,1.4-0.8,2.1,1.5,4.9C737.8,46.7,742,48.1,750.1,45.2z"></path>
							<path class="st1" d="M753.8,48.9c-3,5.2-5.6,11.4-2.2,16c4.2,5.5,13,1.8,11-5.6c-1.1-4-7.5-4.2-6.6-1.6
								c0.4,1.9,3.2-0.3,4.2,1.9c1,2.3-0.7,3.8-1.9,4.1c-1.4-4.1-2.1,0.8-4.9-1.5C752.3,61.2,750.9,57,753.8,48.9z"></path>
						</g>
						<g>
							<g>
								<path class="st1" d="M750.1,41c0.7-1.5,5.5-0.9,6.7-3.5c-2-4.3-6.8-0.5-6.4,0.9c1-1.1,2.4-1.5,3.3-1.2
									c-2.6,1.3-3.8,2.3-4,3.8C749.9,41.3,750.1,41,750.1,41z"></path>
								<path class="st1" d="M749.4,37.6c0.5-0.6,2.8-4.2-0.2-6.5c-0.6-0.7-3.7,2.3-2.4,5.2c0.6,1.2,1.1,1.4,1.1,1.4
									s1.5-2.4,0.7-4.3c1-0.3,0.8,3.1,0.3,4.5C748.9,38.4,749.4,37.6,749.4,37.6z"></path>
								<path class="st1" d="M747.1,38.3c-0.6-1.4-1.9-4.5-4.5-3.7c-0.7,1.8,0.2,5.6,3.9,5.3c0.6-0.4-0.5-2.1-1.7-2.7
									c-0.5-0.7,1.7,0.9,2,1.5C747.2,39.4,747.2,38.6,747.1,38.3z"></path>
							</g>
							<g>
								<path class="st1" d="M758,48.9c1.5-0.7,0.9-5.5,3.5-6.7c4.3,2,0.5,6.8-0.9,6.4c1.1-1,1.5-2.4,1.2-3.3
									c-1.3,2.6-2.3,3.8-3.8,4C757.7,49.1,758,48.9,758,48.9z"></path>
								<path class="st1" d="M761.4,49.6c0.6-0.5,4.2-2.8,6.5,0.2c0.7,0.6-2.3,3.7-5.2,2.4c-1.2-0.6-1.4-1.1-1.4-1.1
									s2.4-1.5,4.3-0.7c0.3-1-3.1-0.8-4.5-0.3C760.6,50.1,761.4,49.6,761.4,49.6z"></path>
								<path class="st1" d="M760.7,51.9c1.4,0.6,4.5,1.9,3.7,4.5c-1.8,0.7-5.6-0.2-5.3-3.9c0.4-0.6,2.1,0.5,2.7,1.7
									c0.7,0.5-0.9-1.7-1.5-2.1C759.6,51.8,760.4,51.8,760.7,51.9z"></path>
							</g>
						</g>
					</g>
					<g>
						<path class="st1" d="M727.2,55.2c-3.8-0.8-11.3-9.7-12.4-12.4c-1.4-3.3-1.1-6-2.3-7c-3,0.6-3.5,3.5-2.9,5.1
							c0.5,1.6,2.1,4,3.3,4.9c1.3,0.9,1.2,2.7-1,0.8c-2.2-1.9-4.6-5.3-4-8.1c0.7-3,1.8-5.7,0.9-6c-1.4-0.5-6.5,0.9-6,6.3
							c0.5,6.8,7.7,8.5,8,9.5c0.3,0.8-0.8,0.8-2.4-0.4c-1.6-1.2-3.1,1.2-1.3,2.6c1.8,1.4,8,2.2,10,2c-3.6,1.4-3,2.4-0.8,3.6
							C718.7,57,725.2,56.4,727.2,55.2z"></path>
						<g>
							<g>
								<path class="st1" d="M734.4,19.9c-5.5-0.5-19,4.1-19.9,13.8c0.1,2.3-5.3-3.9-2.6-7.4c2.7-3.5,4.9-3.4,6.1-4.2
									c1.1-0.8,0.8-1.7-0.9-1.5c-1.6,0.2-6.7,3.7-8,6.4c-1.3,2.7-5.9,4.8-6.4,2.8c-0.5-2,0.4-4.7,2.7-6.8c2.3-2.1,5.7-1.8,4.5-2.9
									c-0.6-0.6-4.4,1.1-6.5,2.9c-2.1,1.8-6.5,2.7-8.5,1.8c3.9-7.7,16.6-11.6,25.2-10.1c8.6,1.5,15.5,4.1,15.2,2.1
									c0.2-1.9,2.4-2.6,3.5-1C740.1,17.4,738,20.2,734.4,19.9z"></path>
							</g>
							<g>
								<g>
									<path class="st1" d="M779.1,64.6c0.5,5.5-4.1,19-13.8,19.9c-2.3-0.1,3.9,5.3,7.4,2.6c3.5-2.7,3.4-4.9,4.2-6.1
										c0.8-1.1,1.7-0.8,1.5,0.9c-0.2,1.6-3.7,6.7-6.4,8c-2.7,1.3-4.8,5.9-2.8,6.4c2,0.5,4.7-0.4,6.8-2.7c2.1-2.3,1.8-5.7,2.9-4.5
										c0.6,0.6-1.1,4.4-2.9,6.5c-1.8,2.1-2.7,6.5-1.8,8.5c7.7-3.9,11.6-16.6,10.1-25.2c-1.5-8.7-4.1-15.5-2.1-15.2
										c1.9-0.2,2.6-2.4,1-3.5C781.6,58.9,778.8,61,779.1,64.6z"></path>
								</g>
								<path class="st1" d="M743.8,71.8c0.8,3.8,9.7,11.3,12.4,12.4c3.3,1.4,6,1.1,7,2.3c-0.6,3-3.5,3.5-5.1,2.9
									c-1.6-0.5-4-2.1-4.9-3.3c-0.9-1.3-2.7-1.2-0.8,1c1.9,2.2,5.3,4.6,8.1,4c3-0.7,5.7-1.8,6-0.9c0.5,1.4-0.9,6.5-6.3,6
									c-6.8-0.5-8.5-7.7-9.5-8c-0.8-0.3-0.8,0.8,0.4,2.4c1.2,1.6-1.2,3.1-2.6,1.3c-1.4-1.8-2.2-8-2-10c-1.4,3.6-2.4,3-3.6,0.8
									C742,80.3,742.6,73.8,743.8,71.8z"></path>
							</g>
						</g>
					</g>
					<g>
						<path class="st1" d="M732.8,78.9c-2-2.5-2.3-7.4-1.7-8.8c0.5-1.4,1.7-1.7,1.7-0.9c1.1,3,5.1,0.5,4.7-1.7
							c-0.3-2.3,0.4-3.2,2.7-5.9c-0.8,1.6-1.8,5.5-0.1,7.2c1.7,1.7,3.7,0.2,2.7-2.1c-1-2.3-0.4-9.3,0-10.6c-1.3,0.4-8.3,1-10.6,0
							c-2.3-1-3.8,1-2,2.7c1.7,1.7,5.6,0.6,7.2-0.1c-2.7,2.3-3.7,3-5.9,2.7c-2.3-0.3-4.7,3.7-1.7,4.7c0.9,0,0.5,1.2-0.9,1.7
							c-1.4,0.5-6.4,0.3-8.8-1.7c-2.5-2-5,1.7-1.7,3c2.7,1.1,9.7,1.7,12.2-0.8c-2.5,2.5-1.8,9.5-0.8,12.2
							C731.1,83.9,734.9,81.4,732.8,78.9z"></path>
						<path class="st1" d="M726.6,74.2c-0.5,0.5-1.3,0.5-1.7,0c-0.5-0.5-0.5-1.2,0-1.7s1.3-0.5,1.7,0C727,72.9,727,73.7,726.6,74.2z
							"></path>
						<path class="st1" d="M721,79.7c-0.5,0.5-1.2,0.5-1.7,0c-0.5-0.5-0.5-1.3,0-1.7c0.5-0.5,1.2-0.5,1.7,0
							C721.5,78.4,721.5,79.2,721,79.7z"></path>
						<g>
							<path class="st1" d="M721.9,75.3c-0.5,0.5-1.2,0.5-1.7,0c-0.5-0.5-0.5-1.2,0-1.7c0.5-0.5,1.3-0.5,1.7,0
								C722.3,74.1,722.3,74.8,721.9,75.3z"></path>
							<path class="st1" d="M725.4,78.9c-0.5,0.5-1.2,0.5-1.7,0c-0.5-0.5-0.5-1.2,0-1.7c0.5-0.5,1.3-0.5,1.7,0
								C725.9,77.6,725.9,78.4,725.4,78.9z"></path>
						</g>
					</g>
				</g>
				<g>
					<g>
						<g>
							<path class="st1" d="M25.2,62c0.3-4.2,2.3-11.7-2.4-13.4c3.1,3.1,1.6,8.1,1.6,12.3c-2.3-0.6-7.6-5.3-7.6-5.3s0.3-2.4,4.2-3.3
								c-1.8,0.1-4.4-3.1-5.7-2.7c-0.2-3.7,6.8-7.1,12.1-2.1c5.3,5-1.8,19.3,4.5,26.5c-2.4-8.6,1.8-13.4,3.6-12
								c-4.4,2.8-0.5,19.3,9.7,9.7c9.7-9.1,7.7-18-4-29.8c-1.9-1.9-3.9-1.5-5.3,0c-1.5,1.5-3.7-1.5-3.1-2.1c0.6-0.6,1.6-2.6,0-4.2
								c-1.5-1.5-7.9,4.8-11.5,2.3c-0.6-1.2,2.5-2.5,1.6-2.9c-1.1-0.5-2.1,1.5-4.1,1.4c-2-0.1-3.3-2-3.4-3.7c1-0.4,1.9-1.5,3.2-1.5
								c1.3,0.1,2.7,1.1,2.9,1.1c0.5,0-1.9-1.5-1-2c1.3-1.8,2.4-0.3,4-0.7c2.1-0.5,2.6-1.9-0.2-1.5c-1.9,0.3-5.2,1.2-6.5-0.2
								c-0.4-0.4,0.8-1.2,0.6-1.3c-0.2-0.1-0.5,0-1.6,0c-1,0-2-1.5-1.8-2.2c0.3-0.9,2.4-0.8,3.1-0.1c1.4,1.2,0.6,0.1,0.7,0.2
								c0.6,0.4-1.3-0.9-0.8-1.4c0.5-0.5,3.1,0.7,2.8-0.2c-0.3-1-0.9-0.7-2.8-1c-0.8-0.1-2.3-1.6-2.1-2.4c0.6-0.8,2.1-0.3,2.1-0.4
								c0.1-0.4-1.1-0.8-1.8-1.2c-0.7-0.4-1.3-1.8-0.9-3.3c1.5-0.3,2.9,0.2,3.3,0.9c0.4,0.7,0.8,1.9,1.2,1.8c0.2,0-0.3-1.5,0.4-2.1
								c0.7-0.2,2.2,1.3,2.4,2.1c0.3,1.8,0.1,2.4,1,2.8c0.9,0.3-0.3-2.3,0.2-2.8c0.5-0.5,1.9,1.4,1.4,0.8c-0.1-0.1,1.1,0.7-0.2-0.7
								c-0.7-0.8-0.8-2.8,0.1-3.1c0.7-0.3,2.3,0.8,2.2,1.8c0,1.1-0.1,1.4,0,1.6c0,0.1,0.8-1,1.3-0.6c1.4,1.4,0.5,4.6,0.2,6.5
								c-0.5,2.8,1,2.3,1.5,0.2c0.4-1.6-1.1-2.7,0.7-4c0.4-0.8,2,1.5,2,1c0-0.2-1.1-1.6-1.1-2.9c-0.1-1.4,1.1-2.3,1.5-3.2
								c1.7,0.1,3.6,1.4,3.7,3.4c0.1,2-1.9,3.1-1.4,4.1c0.4,0.9,1.7-2.2,2.9-1.6c2.5,3.6-3.8,10-2.3,11.5c1.6,1.6,3.6,0.6,4.2,0
								c0.6-0.6,3.6,1.6,2.1,3.1c-1.5,1.5-1.9,3.5,0,5.3c11.7,11.7,20.7,13.7,29.8,4c9.5-10.2-7-14.1-9.7-9.7c-1.5-1.8,3.4-6,12-3.6
								c-7.3-6.3-21.5,0.8-26.5-4.5c-5-5.3-1.6-12.3,2.1-12.1c-0.4,1.3,2.8,3.9,2.7,5.7c0.9-3.9,3.3-4.2,3.3-4.2s4.7,5.3,5.3,7.6
								c-4.2,0-9.2,1.5-12.3-1.6c1.8,4.7,9.2,2.8,13.4,2.4c4.2-0.3,15.1-0.8,19.3,9.9c4.2,10.7-11.6,25.8-29.4,17.8
								c8,17.9-7.1,33.7-17.8,29.4C24.4,77.1,24.9,66.2,25.2,62z"></path>
						</g>
						<g>
							<path class="st1" d="M49.9,45.2c5.2,3,11.4,5.6,16,2.2c5.5-4.2,1.8-13-5.6-11c-4,1.1-4.2,7.5-1.6,6.6
								c1.9-0.4-0.3-3.2,1.9-4.2c2.3-1,3.8,0.7,4.1,1.9c-4.1,1.4,0.8,2.1-1.5,4.9C62.2,46.7,58,48.1,49.9,45.2z"></path>
							<path class="st1" d="M46.2,48.9c3,5.2,5.6,11.4,2.2,16c-4.2,5.5-13,1.8-11-5.6c1.1-4,7.5-4.2,6.6-1.6
								c-0.4,1.9-3.2-0.3-4.2,1.9c-1,2.3,0.7,3.8,1.9,4.1c1.4-4.1,2.1,0.8,4.9-1.5C47.7,61.2,49.1,57,46.2,48.9z"></path>
						</g>
						<g>
							<g>
								<path class="st1" d="M49.9,41c-0.7-1.5-5.5-0.9-6.7-3.5c2-4.3,6.8-0.5,6.4,0.9c-1-1.1-2.4-1.5-3.3-1.2
									c2.6,1.3,3.8,2.3,4,3.8C50.1,41.3,49.9,41,49.9,41z"></path>
								<path class="st1" d="M50.6,37.6c-0.5-0.6-2.7-4.2,0.2-6.5c0.6-0.7,3.7,2.3,2.4,5.2c-0.6,1.2-1.1,1.4-1.1,1.4
									s-1.5-2.4-0.7-4.3c-1-0.3-0.8,3.1-0.3,4.5C51.1,38.4,50.6,37.6,50.6,37.6z"></path>
								<path class="st1" d="M52.9,38.3c0.6-1.4,1.9-4.5,4.5-3.7c0.7,1.8-0.2,5.6-3.9,5.3c-0.6-0.4,0.5-2.1,1.7-2.7
									c0.5-0.7-1.7,0.9-2.1,1.5C52.8,39.4,52.8,38.6,52.9,38.3z"></path>
							</g>
							<g>
								<path class="st1" d="M42,48.9c-1.5-0.7-0.9-5.5-3.5-6.7c-4.3,2-0.5,6.8,0.9,6.4c-1.1-1-1.5-2.4-1.2-3.3
									c1.3,2.6,2.3,3.8,3.8,4C42.3,49.1,42,48.9,42,48.9z"></path>
								<path class="st1" d="M38.6,49.6c-0.6-0.5-4.2-2.8-6.5,0.2c-0.7,0.6,2.3,3.7,5.2,2.4c1.2-0.6,1.4-1.1,1.4-1.1
									s-2.4-1.5-4.3-0.7c-0.3-1,3.1-0.8,4.5-0.3C39.4,50.1,38.6,49.6,38.6,49.6z"></path>
								<path class="st1" d="M39.3,51.9c-1.4,0.6-4.5,1.9-3.7,4.5c1.8,0.7,5.6-0.2,5.3-3.9c-0.4-0.6-2.1,0.5-2.7,1.7
									c-0.7,0.5,0.9-1.7,1.5-2.1C40.4,51.8,39.6,51.8,39.3,51.9z"></path>
							</g>
						</g>
					</g>
					<g>
						<path class="st1" d="M72.8,55.2c3.8-0.8,11.3-9.7,12.4-12.4c1.4-3.3,1.1-6,2.3-7c3,0.6,3.5,3.5,2.9,5.1c-0.5,1.6-2,4-3.3,4.9
							c-1.3,0.9-1.2,2.7,1,0.8c2.2-1.9,4.6-5.3,4-8.1c-0.7-3-1.8-5.7-0.9-6c1.4-0.5,6.5,0.9,6,6.3c-0.5,6.8-7.7,8.5-8,9.5
							c-0.3,0.8,0.8,0.8,2.4-0.4c1.6-1.2,3.1,1.2,1.3,2.6c-1.8,1.4-8,2.2-10,2.1c3.6,1.4,3,2.4,0.8,3.6C81.3,57,74.8,56.4,72.8,55.2
							z"></path>
						<g>
							<g>
								<path class="st1" d="M65.6,19.9c5.5-0.5,19,4.1,19.9,13.8c-0.1,2.3,5.3-3.9,2.6-7.4c-2.7-3.5-4.9-3.4-6.1-4.2
									c-1.1-0.8-0.8-1.7,0.9-1.5c1.6,0.2,6.7,3.7,8,6.4c1.3,2.7,5.9,4.8,6.4,2.8c0.5-2-0.4-4.7-2.7-6.8c-2.3-2.1-5.7-1.8-4.5-2.9
									c0.6-0.6,4.4,1.1,6.5,2.9c2.1,1.8,6.5,2.7,8.5,1.8c-3.9-7.7-16.6-11.6-25.2-10.1c-8.6,1.5-15.5,4.1-15.2,2.1
									c-0.2-1.9-2.4-2.6-3.5-1C59.9,17.4,62,20.2,65.6,19.9z"></path>
							</g>
							<g>
								<g>
									<path class="st1" d="M20.9,64.6c-0.5,5.5,4.1,19,13.8,19.9c2.3-0.1-3.9,5.3-7.4,2.6c-3.5-2.7-3.4-4.9-4.2-6.1
										c-0.8-1.1-1.7-0.8-1.5,0.9c0.2,1.6,3.7,6.7,6.4,8c2.7,1.3,4.8,5.9,2.8,6.4c-2,0.5-4.7-0.4-6.8-2.7
										c-2.1-2.3-1.8-5.7-2.9-4.5c-0.6,0.6,1.1,4.4,2.9,6.5c1.8,2.1,2.7,6.5,1.8,8.5c-7.7-3.9-11.6-16.6-10.1-25.2
										c1.5-8.7,4.1-15.5,2.1-15.2c-1.9-0.2-2.6-2.4-1-3.5C18.4,58.9,21.2,61,20.9,64.6z"></path>
								</g>
								<path class="st1" d="M56.2,71.8c-0.8,3.8-9.7,11.3-12.4,12.4c-3.3,1.4-6,1.1-7,2.3c0.6,3,3.5,3.5,5.1,2.9
									c1.6-0.5,4-2.1,4.9-3.3c0.9-1.3,2.7-1.2,0.8,1c-1.9,2.2-5.3,4.6-8.1,4c-3-0.7-5.7-1.8-6-0.9c-0.5,1.4,0.9,6.5,6.3,6
									c6.8-0.5,8.5-7.7,9.5-8c0.8-0.3,0.8,0.8-0.4,2.4c-1.2,1.6,1.2,3.1,2.6,1.3c1.4-1.8,2.2-8,2.1-10c1.4,3.6,2.4,3,3.6,0.8
									C58,80.3,57.4,73.8,56.2,71.8z"></path>
							</g>
						</g>
					</g>
					<g>
						<path class="st1" d="M67.2,78.9c2.1-2.5,2.3-7.4,1.7-8.8c-0.5-1.4-1.7-1.7-1.7-0.9c-1.1,3-5.1,0.5-4.7-1.7
							c0.3-2.3-0.4-3.2-2.7-5.9c0.8,1.6,1.8,5.5,0.1,7.2c-1.7,1.7-3.7,0.2-2.7-2.1c1-2.3,0.4-9.3,0-10.6c1.3,0.4,8.3,1,10.6,0
							c2.3-1,3.8,1,2,2.7c-1.7,1.7-5.6,0.6-7.2-0.1c2.7,2.3,3.7,3,5.9,2.7c2.3-0.3,4.7,3.7,1.7,4.7c-0.9,0-0.5,1.2,0.9,1.7
							c1.4,0.5,6.4,0.3,8.8-1.7c2.5-2.1,5,1.7,1.7,3c-2.7,1.1-9.7,1.7-12.2-0.8c2.5,2.5,1.8,9.5,0.8,12.2
							C68.9,83.9,65.1,81.4,67.2,78.9z"></path>
						<path class="st1" d="M73.4,74.2c0.5,0.5,1.2,0.5,1.7,0c0.5-0.5,0.5-1.3,0-1.7c-0.5-0.5-1.2-0.5-1.7,0
							C73,72.9,73,73.7,73.4,74.2z"></path>
						<path class="st1" d="M79,79.7c0.5,0.5,1.2,0.5,1.7,0c0.5-0.5,0.5-1.3,0-1.7c-0.5-0.5-1.3-0.5-1.7,0
							C78.5,78.4,78.5,79.2,79,79.7z"></path>
						<g>
							<path class="st1" d="M78.1,75.3c0.5,0.5,1.2,0.5,1.7,0c0.5-0.5,0.5-1.3,0-1.7c-0.5-0.5-1.2-0.5-1.7,0
								C77.7,74.1,77.7,74.8,78.1,75.3z"></path>
							<path class="st1" d="M74.6,78.9c0.5,0.5,1.2,0.5,1.7,0c0.5-0.5,0.5-1.2,0-1.7c-0.5-0.5-1.3-0.5-1.7,0
								C74.1,77.6,74.1,78.4,74.6,78.9z"></path>
						</g>
					</g>
				</g>
			</g>
			<polygon class="st1" points="697.7,16.2 218.7,16.2 102.3,16.2 109.8,20.3 218.7,20.3 690.2,20.3 			"></polygon>
			<rect x="108.2" y="23.8" class="st1" width="583.6" height="2.1"></rect>
		</g>
		<g>
			<g>
				<g>
					<g>
						<g>
							<path class="st1" d="M63,541.5c-4.2-0.3-11.7-2.3-13.4,2.4c3.1-3.1,8.1-1.6,12.3-1.6c-0.6,2.3-5.3,7.6-5.3,7.6
								s-2.4-0.3-3.3-4.2c0.1,1.8-3.1,4.4-2.7,5.7c-3.7,0.2-7.1-6.8-2.1-12.1c5-5.3,19.3,1.8,26.5-4.5c-8.6,2.4-13.4-1.8-12-3.6
								c2.8,4.4,19.3,0.5,9.7-9.7c-9.1-9.7-18-7.7-29.8,4c-1.9,1.9-1.5,3.9,0,5.3c1.5,1.5-1.5,3.7-2.1,3.1c-0.6-0.6-2.6-1.6-4.2,0
								c-1.5,1.5,4.8,7.9,2.3,11.5c-1.2,0.6-2.5-2.5-2.9-1.6c-0.5,1.1,1.5,2.1,1.4,4.1c-0.1,2-2,3.3-3.7,3.4c-0.4-1-1.5-1.9-1.5-3.2
								c0.1-1.3,1.1-2.7,1.1-2.9c0-0.5-1.5,1.9-2,1c-1.8-1.3-0.3-2.4-0.7-4c-0.5-2.1-1.9-2.6-1.5,0.2c0.3,1.9,1.2,5.2-0.2,6.5
								c-0.4,0.4-1.2-0.7-1.3-0.6c-0.1,0.2,0,0.5,0,1.6c0,1-1.5,2-2.2,1.8c-1-0.3-0.8-2.3-0.1-3.1c1.2-1.4,0.1-0.6,0.2-0.7
								c0.4-0.6-0.9,1.3-1.4,0.8c-0.5-0.5,0.7-3.1-0.2-2.8c-1,0.3-0.7,0.9-1,2.8c-0.1,0.8-1.6,2.3-2.4,2.1c-0.8-0.6-0.3-2.1-0.4-2.1
								c-0.4-0.1-0.8,1.1-1.2,1.8c-0.4,0.7-1.8,1.3-3.3,0.9c-0.3-1.5,0.2-2.9,0.9-3.3c0.7-0.4,1.9-0.8,1.8-1.2
								c0-0.2-1.5,0.4-2.1-0.4c-0.2-0.7,1.3-2.2,2.1-2.4c1.8-0.3,2.4-0.1,2.8-1c0.3-0.9-2.3,0.3-2.8-0.2c-0.5-0.5,1.4-1.9,0.8-1.4
								c-0.1,0.1,0.7-1.1-0.7,0.2c-0.8,0.7-2.8,0.8-3.1-0.1c-0.3-0.7,0.8-2.3,1.8-2.2c1.1,0,1.4,0.1,1.6,0c0.1,0-1-0.8-0.6-1.3
								c1.4-1.4,4.6-0.6,6.5-0.2c2.8,0.5,2.3-1,0.2-1.5c-1.6-0.4-2.7,1.1-4-0.7c-0.8-0.4,1.5-2,1-2c-0.2,0-1.6,1.1-2.9,1.1
								c-1.4,0.1-2.3-1.1-3.2-1.5c0.1-1.7,1.4-3.6,3.4-3.7c2-0.1,3.1,1.9,4.1,1.4c0.9-0.4-2.2-1.7-1.6-2.9c3.6-2.5,10,3.8,11.5,2.3
								c1.6-1.6,0.6-3.6,0-4.2c-0.6-0.6,1.6-3.6,3.1-2.1c1.5,1.5,3.5,1.9,5.3,0c11.7-11.7,13.7-20.7,4-29.8
								c-10.2-9.5-14.1,7-9.7,9.7c-1.8,1.5-6-3.4-3.6-12c-6.3,7.3,0.8,21.5-4.5,26.5c-5.3,5-12.3,1.6-12.1-2.1
								c1.3,0.4,3.9-2.8,5.7-2.7c-3.9-0.9-4.2-3.3-4.2-3.3s5.3-4.7,7.6-5.3c0,4.2,1.5,9.2-1.6,12.3c4.7-1.8,2.8-9.2,2.4-13.4
								c-0.3-4.2-0.8-15.1,9.9-19.3c10.7-4.2,25.8,11.6,17.8,29.4c17.9-8,33.7,7.1,29.4,17.8C78.1,542.3,67.2,541.8,63,541.5z"></path>
						</g>
						<g>
							<path class="st1" d="M46.2,516.7c3-5.2,5.6-11.4,2.2-16c-4.2-5.5-13-1.8-11,5.6c1.1,4,7.5,4.2,6.6,1.6
								c-0.4-1.9-3.2,0.3-4.2-1.9c-1-2.3,0.7-3.8,1.9-4.1c1.4,4.1,2.1-0.8,4.9,1.5C47.7,504.4,49.1,508.6,46.2,516.7z"></path>
							<path class="st1" d="M49.9,520.5c5.2-3,11.4-5.6,16-2.2c5.5,4.2,1.8,13-5.6,11c-4-1.1-4.2-7.5-1.6-6.6
								c1.9,0.4-0.3,3.2,1.9,4.2c2.3,1,3.8-0.7,4.1-1.9c-4.1-1.4,0.8-2.1-1.5-4.9C62.2,519,58,517.6,49.9,520.5z"></path>
						</g>
						<g>
							<g>
								<path class="st1" d="M42,516.8c-1.5,0.7-0.9,5.5-3.5,6.7c-4.3-2-0.5-6.8,0.9-6.4c-1.1,1-1.5,2.4-1.2,3.3
									c1.3-2.6,2.3-3.8,3.8-4C42.3,516.5,42,516.8,42,516.8z"></path>
								<path class="st1" d="M38.6,516.1c-0.6,0.5-4.2,2.8-6.5-0.2c-0.7-0.6,2.3-3.7,5.2-2.4c1.2,0.6,1.4,1.1,1.4,1.1
									s-2.4,1.5-4.3,0.7c-0.3,1,3.1,0.8,4.5,0.3C39.4,515.6,38.6,516.1,38.6,516.1z"></path>
								<path class="st1" d="M39.3,513.7c-1.4-0.6-4.5-1.9-3.7-4.5c1.8-0.7,5.6,0.2,5.3,3.9c-0.3,0.6-2-0.5-2.7-1.7
									c-0.7-0.5,0.9,1.7,1.5,2.1C40.4,513.8,39.6,513.9,39.3,513.7z"></path>
							</g>
							<g>
								<path class="st1" d="M49.9,524.7c-0.7,1.5-5.5,0.9-6.7,3.5c2,4.3,6.8,0.5,6.4-0.9c-1,1.1-2.4,1.5-3.3,1.2
									c2.6-1.3,3.8-2.3,4-3.8C50.1,524.3,49.9,524.7,49.9,524.7z"></path>
								<path class="st1" d="M50.6,528.1c-0.5,0.6-2.7,4.2,0.2,6.5c0.6,0.7,3.7-2.3,2.4-5.2c-0.6-1.2-1.1-1.4-1.1-1.4
									s-1.5,2.4-0.7,4.3c-1,0.3-0.8-3.1-0.3-4.5C51.1,527.2,50.6,528.1,50.6,528.1z"></path>
								<path class="st1" d="M52.9,527.4c0.6,1.4,1.9,4.5,4.5,3.7c0.7-1.8-0.2-5.6-3.9-5.3c-0.6,0.4,0.5,2,1.7,2.7
									c0.5,0.7-1.7-0.9-2.1-1.5C52.8,526.3,52.8,527.1,52.9,527.4z"></path>
							</g>
						</g>
					</g>
					<g>
						<path class="st1" d="M56.2,493.9c-0.8-3.8-9.7-11.3-12.4-12.4c-3.3-1.4-6-1.1-7-2.3c0.6-3,3.5-3.5,5.1-2.9
							c1.6,0.5,4,2.1,4.9,3.3c0.9,1.3,2.7,1.2,0.8-1c-1.9-2.2-5.3-4.6-8.1-4c-3,0.7-5.7,1.8-6,0.9c-0.5-1.4,0.9-6.5,6.3-6
							c6.8,0.5,8.5,7.7,9.5,8c0.8,0.3,0.8-0.8-0.4-2.4c-1.2-1.6,1.2-3.1,2.6-1.3c1.4,1.8,2.2,8,2.1,10c1.4-3.6,2.4-3,3.6-0.8
							C58,485.3,57.4,491.8,56.2,493.9z"></path>
						<g>
							<g>
								<path class="st1" d="M20.9,501c-0.5-5.5,4.1-19,13.8-19.9c2.3,0.1-3.9-5.3-7.4-2.6c-3.5,2.7-3.4,4.9-4.2,6.1
									c-0.8,1.1-1.7,0.8-1.5-0.9c0.2-1.6,3.7-6.7,6.4-8c2.7-1.3,4.8-5.9,2.8-6.4c-2-0.5-4.7,0.4-6.8,2.7c-2.1,2.3-1.8,5.7-2.9,4.5
									c-0.6-0.6,1.1-4.4,2.9-6.5c1.8-2.1,2.7-6.5,1.8-8.5c-7.7,3.9-11.6,16.6-10.1,25.2c1.5,8.6,4.1,15.5,2.1,15.2
									c-1.9,0.2-2.6,2.4-1,3.5C18.4,506.8,21.2,504.7,20.9,501z"></path>
							</g>
							<g>
								<g>
									<path class="st1" d="M65.6,545.8c5.5,0.5,19-4.1,19.9-13.8c-0.1-2.3,5.3,3.9,2.6,7.4c-2.7,3.5-4.9,3.4-6.1,4.2
										c-1.1,0.8-0.8,1.7,0.9,1.5c1.6-0.2,6.7-3.7,8-6.4c1.3-2.7,5.9-4.8,6.4-2.8c0.5,2-0.4,4.7-2.7,6.8c-2.3,2.1-5.7,1.8-4.5,2.9
										c0.6,0.6,4.4-1.1,6.5-2.9c2.1-1.8,6.5-2.7,8.5-1.8c-3.9,7.7-16.6,11.6-25.2,10.1c-8.6-1.5-15.5-4.1-15.2-2.1
										c-0.2,1.9-2.4,2.6-3.5,1C59.9,548.2,62,545.5,65.6,545.8z"></path>
								</g>
								<path class="st1" d="M72.8,510.5c3.8,0.8,11.3,9.7,12.4,12.4c1.4,3.3,1.1,6,2.3,7c3-0.6,3.5-3.5,2.9-5.1
									c-0.5-1.6-2.1-4-3.3-4.9c-1.3-0.9-1.2-2.7,1-0.8c2.2,1.9,4.6,5.3,4,8.1c-0.7,3-1.8,5.7-0.9,6c1.4,0.5,6.5-0.9,6-6.3
									c-0.5-6.8-7.7-8.5-8-9.5c-0.3-0.8,0.8-0.8,2.4,0.4c1.6,1.2,3.1-1.2,1.3-2.6c-1.8-1.4-8-2.2-10-2c3.6-1.4,3-2.4,0.8-3.6
									C81.3,508.6,74.8,509.3,72.8,510.5z"></path>
							</g>
						</g>
					</g>
					<g>
						<path class="st1" d="M79.9,499.5c-2.5-2-7.4-2.3-8.8-1.7c-1.4,0.5-1.7,1.7-0.9,1.7c3,1.1,0.5,5.1-1.7,4.7
							c-2.3-0.3-3.2,0.4-5.9,2.7c1.6-0.8,5.5-1.8,7.2-0.1c1.7,1.7,0.2,3.7-2.1,2.7c-2.3-1-9.3-0.4-10.6,0c0.4-1.3,1-8.3,0-10.6
							c-1-2.3,1-3.8,2.7-2c1.7,1.7,0.6,5.6-0.1,7.2c2.3-2.7,3-3.7,2.7-5.9c-0.3-2.3,3.7-4.7,4.7-1.7c0,0.9,1.2,0.5,1.7-0.9
							c0.5-1.4,0.3-6.4-1.7-8.8c-2-2.5,1.7-5,3-1.7c1.1,2.7,1.7,9.7-0.8,12.2c2.5-2.5,9.5-1.8,12.2-0.8
							C84.9,497.7,82.4,501.5,79.9,499.5z"></path>
						<path class="st1" d="M75.2,493.2c0.5-0.5,0.5-1.2,0-1.7c-0.5-0.5-1.2-0.5-1.7,0c-0.5,0.5-0.5,1.2,0,1.7
							C73.9,493.7,74.7,493.7,75.2,493.2z"></path>
						<path class="st1" d="M80.7,487.7c0.5-0.5,0.5-1.3,0-1.7c-0.5-0.5-1.2-0.5-1.7,0c-0.5,0.5-0.5,1.3,0,1.7
							C79.4,488.2,80.2,488.2,80.7,487.7z"></path>
						<g>
							<path class="st1" d="M76.3,488.5c0.5-0.5,0.5-1.3,0-1.7c-0.5-0.5-1.3-0.5-1.7,0c-0.5,0.5-0.5,1.3,0,1.7
								C75.1,489,75.8,489,76.3,488.5z"></path>
							<path class="st1" d="M79.9,492.1c0.5-0.5,0.5-1.2,0-1.7c-0.5-0.5-1.3-0.5-1.7,0c-0.5,0.5-0.5,1.3,0,1.7
								C78.6,492.6,79.4,492.6,79.9,492.1z"></path>
						</g>
					</g>
				</g>
			</g>
			<polygon class="st1" points="17.2,101.3 17.2,217.7 17.2,464.3 21.3,456.9 21.3,217.7 21.3,108.8 			"></polygon>
			<rect x="24.8" y="107.2" class="st1" width="2.1" height="351.3"></rect>
		</g>
		<g>
			<g>
				<g>
					<g>
						<g>
							<path class="st1" d="M737,541.5c4.2-0.3,11.7-2.3,13.4,2.4c-3.1-3.1-8.1-1.6-12.3-1.6c0.6,2.3,5.3,7.6,5.3,7.6
								s2.4-0.3,3.3-4.2c-0.1,1.8,3.1,4.4,2.7,5.7c3.7,0.2,7.1-6.8,2.1-12.1c-5-5.3-19.3,1.8-26.5-4.5c8.6,2.4,13.4-1.8,12-3.6
								c-2.8,4.4-19.3,0.5-9.7-9.7c9.1-9.7,18-7.7,29.8,4c1.9,1.9,1.5,3.9,0,5.3c-1.5,1.5,1.5,3.7,2.1,3.1c0.6-0.6,2.6-1.6,4.2,0
								c1.5,1.5-4.8,7.9-2.3,11.5c1.2,0.6,2.5-2.5,2.9-1.6c0.5,1.1-1.5,2.1-1.4,4.1c0.1,2,2,3.3,3.7,3.4c0.4-1,1.5-1.9,1.5-3.2
								c-0.1-1.3-1.1-2.7-1.1-2.9c0-0.5,1.5,1.9,2,1.1c1.8-1.3,0.3-2.4,0.7-4c0.5-2.1,1.9-2.6,1.5,0.2c-0.3,1.9-1.2,5.2,0.2,6.5
								c0.4,0.4,1.2-0.7,1.3-0.6c0.1,0.2,0,0.5,0,1.6c0,1,1.5,2,2.2,1.8c0.9-0.3,0.8-2.4,0.1-3.1c-1.2-1.4-0.1-0.6-0.2-0.7
								c-0.4-0.6,0.9,1.3,1.5,0.8c0.5-0.5-0.7-3.1,0.2-2.8c1,0.3,0.7,0.9,1,2.8c0.1,0.8,1.6,2.3,2.4,2.1c0.8-0.6,0.2-2.1,0.4-2.1
								c0.4-0.1,0.8,1.1,1.2,1.8c0.4,0.7,1.8,1.3,3.3,0.9c0.3-1.5-0.2-2.9-0.9-3.3c-0.7-0.4-1.9-0.8-1.8-1.2c0-0.2,1.5,0.3,2.1-0.4
								c0.2-0.7-1.3-2.2-2.1-2.4c-1.8-0.3-2.4-0.1-2.8-1c-0.3-0.9,2.3,0.3,2.8-0.2c0.5-0.5-1.4-1.9-0.8-1.5c0.1,0.1-0.7-1.1,0.7,0.2
								c0.8,0.7,2.8,0.8,3.1-0.1c0.3-0.7-0.8-2.3-1.8-2.2c-1.1,0-1.4,0.1-1.6,0c-0.1,0,1-0.8,0.6-1.3c-1.4-1.4-4.6-0.6-6.5-0.2
								c-2.8,0.5-2.3-1-0.2-1.5c1.6-0.4,2.7,1.1,4-0.7c0.8-0.4-1.5-2-1-2c0.2,0,1.6,1.1,2.9,1.1c1.4,0.1,2.3-1.1,3.2-1.5
								c-0.1-1.7-1.4-3.6-3.4-3.7c-2-0.1-3.1,1.9-4.1,1.4c-0.9-0.4,2.2-1.7,1.6-2.9c-3.6-2.5-10,3.8-11.5,2.3
								c-1.6-1.6-0.6-3.6,0-4.2c0.6-0.6-1.6-3.6-3.1-2.1c-1.5,1.5-3.5,1.9-5.3,0c-11.7-11.7-13.7-20.7-4-29.8
								c10.2-9.6,14.1,7,9.7,9.7c1.8,1.5,6-3.4,3.6-12c6.3,7.3-0.8,21.5,4.5,26.5c5.3,5,12.3,1.6,12.1-2.1c-1.3,0.4-3.9-2.8-5.7-2.7
								c3.9-0.9,4.2-3.3,4.2-3.3s-5.3-4.7-7.6-5.3c0,4.2-1.5,9.2,1.6,12.3c-4.7-1.8-2.8-9.2-2.4-13.4c0.3-4.2,0.8-15.1-9.9-19.3
								c-10.7-4.2-25.8,11.6-17.8,29.4c-17.9-8-33.6,7.1-29.4,17.8C721.9,542.3,732.8,541.8,737,541.5z"></path>
						</g>
						<g>
							<path class="st1" d="M753.8,516.7c-3-5.2-5.6-11.4-2.2-16c4.2-5.5,13-1.8,11,5.6c-1.1,4-7.5,4.2-6.6,1.6
								c0.4-1.9,3.2,0.3,4.2-1.9c1-2.3-0.7-3.8-1.9-4.1c-1.4,4.1-2.1-0.8-4.9,1.5C752.3,504.4,750.9,508.6,753.8,516.7z"></path>
							<path class="st1" d="M750.1,520.5c-5.2-3-11.4-5.6-16-2.2c-5.5,4.2-1.8,13,5.6,11c4-1.1,4.2-7.5,1.6-6.6
								c-1.9,0.4,0.3,3.2-1.9,4.2c-2.3,1-3.8-0.7-4.1-1.9c4.1-1.4-0.8-2.1,1.5-4.9C737.8,519,742,517.6,750.1,520.5z"></path>
						</g>
						<g>
							<g>
								<path class="st1" d="M758,516.8c1.5,0.7,0.9,5.5,3.5,6.7c4.3-2,0.5-6.8-0.9-6.4c1.1,1,1.5,2.4,1.2,3.3
									c-1.3-2.6-2.3-3.8-3.8-4C757.7,516.5,758,516.8,758,516.8z"></path>
								<path class="st1" d="M761.4,516.1c0.6,0.5,4.2,2.8,6.5-0.2c0.7-0.6-2.3-3.7-5.2-2.4c-1.2,0.6-1.4,1.1-1.4,1.1
									s2.4,1.5,4.3,0.7c0.3,1-3.1,0.8-4.5,0.3C760.6,515.6,761.4,516.1,761.4,516.1z"></path>
								<path class="st1" d="M760.7,513.7c1.4-0.6,4.5-1.9,3.7-4.5c-1.8-0.7-5.6,0.2-5.3,3.9c0.3,0.6,2.1-0.5,2.7-1.7
									c0.7-0.5-0.9,1.7-1.5,2.1C759.6,513.8,760.4,513.9,760.7,513.7z"></path>
							</g>
							<g>
								<path class="st1" d="M750.1,524.7c0.7,1.5,5.5,0.9,6.7,3.5c-2,4.3-6.8,0.5-6.4-0.9c1,1.1,2.4,1.5,3.3,1.2
									c-2.6-1.3-3.8-2.3-4-3.8C749.9,524.3,750.1,524.7,750.1,524.7z"></path>
								<path class="st1" d="M749.4,528.1c0.5,0.6,2.8,4.2-0.2,6.5c-0.6,0.7-3.7-2.3-2.4-5.2c0.6-1.2,1.1-1.4,1.1-1.4
									s1.5,2.4,0.7,4.3c1,0.3,0.8-3.1,0.3-4.5C748.9,527.2,749.4,528.1,749.4,528.1z"></path>
								<path class="st1" d="M747.1,527.3c-0.6,1.4-1.9,4.5-4.5,3.7c-0.7-1.8,0.2-5.6,3.9-5.3c0.6,0.4-0.5,2.1-1.7,2.7
									c-0.5,0.7,1.7-0.9,2.1-1.5C747.2,526.3,747.2,527.1,747.1,527.3z"></path>
							</g>
						</g>
					</g>
					<g>
						<path class="st1" d="M743.8,493.9c0.8-3.8,9.7-11.3,12.4-12.4c3.3-1.4,6-1.1,7-2.3c-0.6-3-3.5-3.5-5.1-2.9
							c-1.6,0.5-4,2-4.9,3.3c-0.9,1.3-2.7,1.2-0.8-1c1.9-2.2,5.3-4.6,8.1-4c3,0.7,5.7,1.8,6,0.9c0.5-1.4-0.9-6.5-6.3-6
							c-6.8,0.5-8.5,7.7-9.5,8c-0.8,0.3-0.8-0.8,0.4-2.4c1.2-1.6-1.2-3.1-2.6-1.3c-1.4,1.8-2.2,8-2.1,10c-1.4-3.6-2.4-3-3.6-0.8
							C742,485.3,742.6,491.8,743.8,493.9z"></path>
						<g>
							<g>
								<path class="st1" d="M779.1,501.1c0.5-5.5-4.1-19-13.8-19.9c-2.3,0.1,3.9-5.3,7.4-2.6c3.5,2.7,3.4,4.9,4.2,6.1
									c0.8,1.1,1.7,0.8,1.5-0.9c-0.2-1.6-3.7-6.7-6.4-8c-2.7-1.3-4.8-5.9-2.8-6.4c2-0.5,4.7,0.4,6.8,2.7c2.1,2.3,1.8,5.7,2.9,4.5
									c0.6-0.6-1.1-4.4-2.9-6.5c-1.8-2.1-2.7-6.5-1.8-8.5c7.7,3.9,11.6,16.6,10.1,25.2c-1.5,8.6-4.1,15.5-2.1,15.2
									c1.9,0.2,2.6,2.4,1,3.6C781.6,506.8,778.8,504.7,779.1,501.1z"></path>
							</g>
							<g>
								<g>
									<path class="st1" d="M734.4,545.8c-5.5,0.5-19-4.1-19.9-13.8c0.1-2.3-5.3,3.9-2.6,7.4c2.7,3.5,4.9,3.4,6.1,4.2
										c1.1,0.8,0.8,1.7-0.9,1.5c-1.6-0.2-6.7-3.7-8-6.4c-1.3-2.7-5.9-4.8-6.4-2.8c-0.5,2,0.4,4.7,2.7,6.8
										c2.3,2.1,5.7,1.8,4.5,2.9c-0.6,0.6-4.4-1.1-6.5-2.9c-2.1-1.8-6.5-2.7-8.5-1.8c3.9,7.7,16.6,11.6,25.2,10.1
										c8.6-1.5,15.5-4.1,15.2-2.1c0.2,1.9,2.4,2.6,3.5,1C740.1,548.3,738,545.5,734.4,545.8z"></path>
								</g>
								<path class="st1" d="M727.2,510.5c-3.8,0.8-11.3,9.7-12.4,12.4c-1.4,3.3-1.1,6-2.3,7c-3-0.6-3.5-3.5-2.9-5.1
									c0.5-1.6,2.1-4,3.3-4.9c1.3-0.9,1.2-2.7-1-0.8c-2.2,1.9-4.6,5.3-4,8.1c0.7,3,1.8,5.7,0.9,6c-1.4,0.5-6.5-0.9-6-6.3
									c0.5-6.8,7.7-8.5,8-9.5c0.3-0.8-0.8-0.8-2.4,0.4c-1.6,1.2-3.1-1.2-1.3-2.6c1.8-1.4,8-2.2,10-2.1c-3.6-1.4-3-2.4-0.8-3.6
									C718.7,508.6,725.2,509.3,727.2,510.5z"></path>
							</g>
						</g>
					</g>
					<g>
						<path class="st1" d="M720.1,499.5c2.5-2,7.4-2.3,8.8-1.7c1.4,0.5,1.7,1.7,0.9,1.7c-3,1.1-0.5,5.1,1.7,4.7s3.2,0.4,5.9,2.7
							c-1.6-0.8-5.5-1.8-7.2-0.1c-1.7,1.7-0.2,3.7,2.1,2.7c2.3-1,9.3-0.4,10.6,0c-0.4-1.3-1-8.3,0-10.6c1-2.3-1-3.8-2.7-2.1
							c-1.7,1.7-0.6,5.6,0.1,7.2c-2.3-2.7-3-3.7-2.7-5.9c0.3-2.3-3.7-4.7-4.8-1.7c0,0.9-1.2,0.5-1.7-0.9c-0.5-1.4-0.3-6.4,1.7-8.8
							c2-2.5-1.7-5-3-1.7c-1.1,2.7-1.7,9.7,0.8,12.2c-2.5-2.5-9.5-1.8-12.2-0.8C715.1,497.7,717.6,501.5,720.1,499.5z"></path>
						<path class="st1" d="M724.8,493.2c-0.5-0.5-0.5-1.3,0-1.7c0.5-0.5,1.2-0.5,1.7,0c0.5,0.5,0.5,1.3,0,1.7
							C726.1,493.7,725.3,493.7,724.8,493.2z"></path>
						<path class="st1" d="M719.3,487.7c-0.5-0.5-0.5-1.2,0-1.7c0.5-0.5,1.2-0.5,1.7,0c0.5,0.5,0.5,1.2,0,1.7
							C720.6,488.2,719.8,488.2,719.3,487.7z"></path>
						<g>
							<path class="st1" d="M723.7,488.5c-0.5-0.5-0.5-1.3,0-1.7c0.5-0.5,1.3-0.5,1.7,0c0.5,0.5,0.5,1.2,0,1.7
								C724.9,489,724.2,489,723.7,488.5z"></path>
							<path class="st1" d="M720.1,492.1c-0.5-0.5-0.5-1.3,0-1.7c0.5-0.5,1.3-0.5,1.7,0c0.5,0.5,0.5,1.3,0,1.7
								C721.4,492.6,720.6,492.6,720.1,492.1z"></path>
						</g>
					</g>
				</g>
			</g>
			<polygon class="st1" points="782.8,464.3 782.8,217.7 782.8,101.3 778.7,108.8 778.7,217.7 778.7,456.9 			"></polygon>
			<rect x="773.2" y="107.2" class="st1" width="2.1" height="351.3"></rect>
		</g>
		<g>
			<polygon class="st1" points="102.3,549.4 218.7,549.4 697.7,549.4 690.2,545.3 218.7,545.3 109.8,545.3 			"></polygon>
			<rect x="108.2" y="539.8" class="st1" width="583.6" height="2.1"></rect>
		</g>
	</g>
</g>
</svg>
